# xmcd
#
# Track frame offsets:
#	150
#	12628
#	31134
#	52296
#	70722
#	87526
#	101134
#	112385
#	132505
#	149871
#	166077
#	178567
#	196015
#	212231
#	228736
#
# Disc length: 3315 seconds
#
# Revision: 1
# Processed by: cddbd v1.5.2PL0 Copyright (c) Steve Scherf et al.
# Submitted via: audiograbber 1.83.01
#
DISCID=eb0cf10f
DTITLE=LeClaire - Blueberry
DYEAR=2005
DGENRE=Country
TTITLE0=You Bring Me Back
TTITLE1=Foreverized
TTITLE2=Glad That I Got You
TTITLE3=Fallin' Though The Cracks
TTITLE4=She's A Soldier
TTITLE5=Anything You Want
TTITLE6=No Tellin'
TTITLE7=Mi Amor
TTITLE8=Jet Me Show You
TTITLE9=Come Here Love
TTITLE10=Monday
TTITLE11=You Live In Me
TTITLE12=Five Gallon Tear
TTITLE13=You Do That
TTITLE14=Better Hands
EXTD=
EXTT0=
EXTT1=
EXTT2=
EXTT3=
EXTT4=
EXTT5=
EXTT6=
EXTT7=
EXTT8=
EXTT9=
EXTT10=
EXTT11=
EXTT12=
EXTT13=
EXTT14=
PLAYORDER=
